<svg xmlns="http://www.w3.org/2000/svg" height="48px" viewBox="0 -960 960 960" width="48px" fill="#F3F3F3"><path d="M790.23-141.08 533.15-398.15q-30.69 26.82-72.3 40.41-41.6 13.59-81.54 13.59-101.25 0-170.63-69.16-69.37-69.15-69.37-170 0-100.84 69.15-170 69.16-69.15 170.44-69.15 99.29 0 169.39 69.15 70.09 69.16 70.09 169.72 0 42.36-14.26 82.47-14.27 40.12-40.74 70.74l258.31 257.07-31.46 32.23ZM379.08-387.92q82.41 0 138.97-56.23 56.57-56.23 56.57-139.16 0-82.92-56.57-139.15-56.56-56.23-138.97-56.23-83.77 0-139.89 56.23-56.11 56.23-56.11 139.15 0 82.93 56.11 139.16 56.12 56.23 139.89 56.23Z"/></svg>